# xmcd
#
# Track frame offsets:
#	150
#	13267
#	28009
#	42519
#	58834
#	72985
#	86743
#	106791
#	121074
#	134313
#	148456
#	161355
#
# Disc length: 2325 seconds
#
# Revision: 1
# Processed by: cddbd v1.5.2PL0 Copyright (c) Steve Scherf et al.
# Submitted via: audiograbber 1.83.01
#
DISCID=ab09130c
DTITLE=Tom Astor - Asphalt - Cowboy
DYEAR=1900
DGENRE=
TTITLE0=Mein Auto kennt schon den Heimweg
TTITLE1=Sie ist jung und ich ein Mann, der viel erlebt
TTITLE2=Ich hab Hunger auf ein Weib
TTITLE3=Angie
TTITLE4=Ein Mann ist schnell verloren
TTITLE5=Die Frau mit dem Gurt
TTITLE6=Der Feigling des Jahrhunderts
TTITLE7=Gestern, da hatte ich morgen ein Ziel
TTITLE8=Hallo Fremder
TTITLE9=Verdammt, mein Sohn hat dein Gesicht
TTITLE10=Wer hat ein Herz, das nie bricht
TTITLE11=Mann, oh Mann
EXTD=
EXTT0=
EXTT1=
EXTT2=
EXTT3=
EXTT4=
EXTT5=
EXTT6=
EXTT7=
EXTT8=
EXTT9=
EXTT10=
EXTT11=
PLAYORDER=
